<svg width="68" height="70" viewBox="0 0 68 70" fill="none" xmlns="http://www.w3.org/2000/svg">
<g id="IceBrekr Favicon.Final">
<g id="IceBrekr Favicon2">
<g id="IceBrekr Favicon 2">
<g id="IceBrekr Favicon">
<path id="Vector" d="M52.7404 18.4203L37.7921 9.85421C35.5338 8.55901 31.8376 8.55901 29.5793 9.85421L14.6311 18.4203C10.2752 21.4236 10.6853 26.0973 10.6853 27.5795V43.9423C10.6853 46.4332 12.4643 49.4916 14.6389 50.7371L28.9132 58.9171C29.0269 58.9817 29.1418 59.0342 29.2567 59.0893H29.2371C33.1398 61.3125 37.5178 59.3812 38.0729 59.1189L38.133 59.0893H38.1147C38.2296 59.0355 38.3446 58.983 38.4582 58.9185L43.7022 55.9125L49.8108 59.9017C50.3019 60.2218 50.9314 59.7672 50.7812 59.2077L49.0754 52.8298L52.7325 50.7344C54.9059 49.4889 56.6848 46.4305 56.6848 43.9383V27.5795C56.6848 26.0973 57.1915 21.1506 52.7404 18.4203Z" fill="#223F7A" stroke="#2E3192" stroke-width="0.78" stroke-miterlimit="10"/>
<path id="Vector_2" d="M29.4827 33.7715L15.2084 25.5914C13.4125 24.5625 11.9431 25.4045 11.9431 27.4623V43.8224C11.9431 45.8802 13.4125 48.4074 15.2084 49.4363L29.4827 57.6164C31.2786 58.6453 32.7479 57.8033 32.7479 55.7442V39.3854C32.7479 37.3263 31.2733 34.7964 29.4827 33.7715Z" fill="#D1D3D4"/>
<path id="Vector_3" d="M51.928 25.3185L37.6537 33.4986C35.8591 34.5275 34.3884 37.0533 34.3884 39.1124V55.4726C34.3884 57.5304 35.8591 58.3723 37.6537 57.3434L51.928 49.1634C53.7239 48.1345 55.1932 45.6086 55.1932 43.5495V27.1893C55.1945 25.1315 53.7239 24.2896 51.928 25.3185Z" fill="white" stroke="#EE3968" stroke-width="5.07" stroke-miterlimit="10"/>
<path id="Vector_4" d="M46.5585 48.5581L48.8611 56.6077L40.7202 51.6394L46.5585 48.5581Z" fill="white" stroke="#EE3968" stroke-width="3.12" stroke-miterlimit="10"/>
<path id="Vector_5" d="M48.5007 49.9745L41.2467 54.2219C41.0254 54.352 40.764 54.3894 40.5166 54.3263C40.2693 54.2632 40.0551 54.1044 39.9184 53.8829L38.9649 52.269C38.9018 52.1619 38.8605 52.0427 38.8435 51.9187C38.8265 51.7946 38.8342 51.6683 38.8661 51.5474C38.898 51.4265 38.9534 51.3136 39.029 51.2154C39.1046 51.1173 39.1988 51.036 39.3058 50.9765L46.5547 46.7358C46.7758 46.6056 47.0371 46.568 47.2844 46.6308C47.5318 46.6937 47.7461 46.8522 47.883 47.0734L48.8364 48.6874C48.8991 48.7939 48.9401 48.9123 48.9572 49.0356C48.9742 49.1589 48.9668 49.2844 48.9354 49.4047C48.904 49.525 48.8494 49.6374 48.7747 49.7354C48.7 49.8333 48.6068 49.9146 48.5007 49.9745Z" fill="white"/>
<path id="Vector_6" d="M12.2474 48.4292C11.4145 49.7317 10.9758 51.2596 10.987 52.8192C10.987 53.1796 11.0471 55.3235 12.3845 57.2037C15.0307 60.9212 20.8141 60.9602 23.8416 60.9817C26.345 60.9937 28.8362 60.6233 31.2341 59.8829" fill="#223F7A"/>
</g>
</g>
</g>
</g>
</svg>
