<svg width="16" height="17" viewBox="0 0 16 17" fill="none" xmlns="http://www.w3.org/2000/svg">
<g id="custom_icons">
<path id="Vector" d="M10.9104 4.77686C9.65042 4.77686 9.11792 5.37811 8.24042 5.37811C7.34073 5.37811 6.65448 4.78123 5.5626 4.78123C4.49385 4.78123 3.35417 5.43373 2.63042 6.54529C1.61417 8.11279 1.78667 11.065 3.4326 13.58C4.02135 14.4803 4.8076 15.49 5.83885 15.5009H5.8576C6.75385 15.5009 7.0201 14.914 8.25354 14.9072H8.27229C9.48729 14.9072 9.73104 15.4975 10.6235 15.4975H10.6423C11.6735 15.4865 12.502 14.3678 13.0907 13.4709C13.5145 12.8259 13.672 12.5022 13.997 11.7725C11.616 10.8687 11.2335 7.49342 13.5882 6.19936C12.8695 5.29936 11.8595 4.77811 10.9073 4.77811L10.9104 4.77686Z" fill="white"/>
<path id="Vector_2" d="M10.6327 1.5C9.88272 1.55094 9.00772 2.02844 8.49522 2.65188C8.03022 3.21688 7.64772 4.055 7.79772 4.86781H7.85772C8.65647 4.86781 9.47397 4.38688 9.95147 3.77063C10.4115 3.18406 10.7602 2.35281 10.6327 1.5Z" fill="white"/>
</g>
</svg>
