<svg width="23" height="30" viewBox="0 0 23 30" fill="none" xmlns="http://www.w3.org/2000/svg">
<path id="Vector" d="M20.2076 13.6081C21.7288 15.3939 22.5367 17.7065 22.469 20.0809C22.4013 22.4553 21.4629 24.7152 19.8426 26.4059C19.0468 27.2647 18.0871 27.9446 17.0237 28.4028C15.9603 28.861 14.8163 29.0876 13.6638 29.0683H3.60011C1.81512 29.0683 0.766891 28.5648 0.462135 27.5681C0.280588 26.9021 0.202595 26.2107 0.231055 25.5196V3.64502C0.220001 3.18422 0.241267 2.72321 0.294686 2.26557C0.351954 1.90111 0.473391 1.55049 0.653023 1.23098C1.00801 0.520562 1.99261 0.165355 3.63695 0.165355H13.2786C14.3775 0.138578 15.4697 0.349054 16.4849 0.783235C17.5 1.21742 18.4157 1.86568 19.1728 2.6863C19.9739 3.48149 20.608 4.43746 21.036 5.49509C21.464 6.55272 21.6768 7.68952 21.6611 8.8352C21.6715 10.5433 21.1634 12.212 20.2076 13.6081ZM15.6932 19.4018C15.7136 18.8937 15.6421 18.3862 15.4822 17.9051C15.3578 17.5568 15.1051 17.2731 14.779 17.1153C14.0877 16.8776 13.3605 16.7701 12.6323 16.7981C11.718 16.7981 11.0248 16.6153 10.566 16.2497C10.1072 15.8842 9.87942 15.1255 9.87942 13.984C9.87942 12.8425 10.1105 12.0872 10.5894 11.7217C11.0683 11.3561 11.8453 11.1665 12.9337 11.1665C13.9384 11.1665 14.5613 10.8906 14.7689 10.3388C14.8586 9.87113 14.8957 9.39437 14.8794 8.91796C14.9063 8.65117 14.8622 8.38188 14.7519 8.1389C14.6416 7.89592 14.4692 7.68839 14.2532 7.53851C13.6648 7.2375 13.0101 7.10075 12.3543 7.14192H6.99596V22.0779H13.2686C14.885 22.0802 15.6932 21.1882 15.6932 19.4018Z" fill="#203E7C"/>
</svg>
