<svg width="25" height="31" viewBox="0 0 25 31" fill="none" xmlns="http://www.w3.org/2000/svg">
<path id="Vector" d="M18.3675 22.5299L19.0373 22.0196C19.9014 21.4919 20.5176 21.2264 20.8759 21.2264C21.664 21.2264 22.5169 21.9632 23.4345 23.4369C23.9971 24.3577 24.2718 25.0923 24.2718 25.6441C24.2803 25.8976 24.2393 26.1503 24.1513 26.3872C24.0633 26.6242 23.93 26.8405 23.7594 27.0235C23.4019 27.4051 22.9964 27.7357 22.5537 28.0064C22.0983 28.296 21.6596 28.5719 21.2141 28.834C20.3907 29.2703 19.5253 29.617 18.6321 29.8686C17.4156 30.2741 16.1464 30.4869 14.8679 30.4997C13.6243 30.4974 12.3862 30.3305 11.184 30.0031C9.86184 29.6243 8.59476 29.0653 7.41641 28.3409C6.11089 27.5751 4.9188 26.6205 3.87655 25.5061C2.74816 24.2574 1.86662 22.7944 1.2811 21.1988C0.595817 19.3845 0.254761 17.4517 0.276414 15.5051C0.25415 13.5965 0.595484 11.702 1.2811 9.92867C1.86263 8.39163 2.72941 6.98599 3.83301 5.79033C4.86661 4.69401 6.05975 3.7702 7.36952 3.05212C9.6627 1.6897 12.2574 0.956998 14.9047 0.924316C16.1419 0.930262 17.3716 1.12195 18.5551 1.49334C19.535 1.76857 20.4811 2.1585 21.3749 2.65552L22.2892 3.2073C22.7547 3.49699 23.1063 3.73494 23.3642 3.89703C23.6606 4.10901 23.9054 4.3886 24.0797 4.714C24.254 5.0394 24.3529 5.40184 24.3689 5.77308C24.3313 6.57208 24.0474 7.33795 23.5584 7.95951C22.5671 9.37804 21.6741 10.0873 20.8792 10.0873C20.4327 10.0873 19.7841 9.79762 18.9335 9.21825C17.8618 8.32851 16.4285 7.88019 14.6468 7.88019C12.9902 7.88019 11.357 8.47106 9.74729 9.65278C8.93285 10.3011 8.27781 11.1375 7.83503 12.0944C7.33211 13.2118 7.07159 14.4287 7.07159 15.6603C7.07159 16.8919 7.33211 18.1087 7.83503 19.2262C8.27607 20.2094 8.93576 21.0718 9.76068 21.7437C11.1605 22.8398 12.865 23.4442 14.6234 23.468C15.3798 23.4734 16.1331 23.3678 16.8605 23.1542C17.3884 23.0188 17.8956 22.8087 18.3675 22.5299Z" fill="#EC145A"/>
</svg>
