<svg width="23" height="30" viewBox="0 0 23 30" fill="none" xmlns="http://www.w3.org/2000/svg">
<path id="Vector" d="M6.88076 22.1197H18.6691C19.1164 22.1129 19.5636 22.1325 20.0087 22.1783C20.362 22.2435 20.7019 22.3706 21.0134 22.5542C21.6999 22.9232 22.0482 23.9337 22.0482 25.6235C22.0482 27.4651 21.5794 28.541 20.6283 28.8583C19.9839 29.0457 19.3146 29.126 18.6457 29.0963H3.46481C1.67982 29.0963 0.628242 28.5962 0.326835 27.5996C0.142756 26.9459 0.0646806 26.2654 0.0957557 25.5856V3.67991C0.0957557 2.33839 0.340231 1.42796 0.819134 0.9417C1.29804 0.455444 2.22236 0.210588 3.57869 0.210588H18.649C19.0964 0.202776 19.5438 0.22351 19.9886 0.272666C20.3418 0.336399 20.6817 0.462398 20.9933 0.645118C21.6798 1.01412 22.0281 2.02457 22.0281 3.72129C22.0281 5.55596 21.5593 6.63538 20.6082 6.95265C19.9632 7.13681 19.2943 7.21594 18.6256 7.18716H6.88076V11.1669H14.4595C14.9067 11.1596 15.354 11.1791 15.7991 11.2255C16.1521 11.29 16.4918 11.416 16.8037 11.5979C17.4959 11.9658 17.8419 12.9912 17.8419 14.6741C17.8419 16.5134 17.3563 17.5905 16.3851 17.9055C15.7381 18.0911 15.0669 18.1714 14.3958 18.1434H6.88076V22.1197Z" fill="#203E7C"/>
</svg>
