<svg width="23" height="30" viewBox="0 0 23 30" fill="none" xmlns="http://www.w3.org/2000/svg">
<path id="Vector" d="M7.59197 22.1196H19.3837C19.822 22.1131 20.2603 22.1327 20.6965 22.1782C21.05 22.2426 21.3899 22.3698 21.7012 22.5541C22.3911 22.922 22.736 23.9451 22.736 25.6234C22.736 27.465 22.2671 28.5409 21.316 28.8582C20.6705 29.0453 20.0001 29.1256 19.3301 29.0962H4.18942C2.40331 29.0962 1.35731 28.5973 1.05144 27.5995C0.867363 26.9458 0.78929 26.2653 0.820365 25.5855V3.67981C0.820365 2.33829 1.06484 1.42785 1.54374 0.941599C2.02264 0.455343 2.95031 0.210487 4.30329 0.210487H19.3736C19.8121 0.202964 20.2505 0.223699 20.6864 0.272565C21.0398 0.335553 21.3798 0.461597 21.6911 0.645017C22.381 1.01287 22.726 2.03826 22.726 3.72119C22.726 5.55586 22.2571 6.63528 21.306 6.95255C20.6598 7.1364 19.9898 7.21552 19.32 7.18706H7.59197V11.1668H15.1673C15.6079 11.1601 16.0485 11.1797 16.4868 11.2254C16.8399 11.2895 17.1798 11.4154 17.4915 11.5978C18.1814 11.9668 18.5297 12.9945 18.5297 14.674C18.5297 16.5133 18.043 17.5904 17.0695 17.9054C16.4237 18.091 15.7536 18.1713 15.0836 18.1433H7.58192L7.59197 22.1196Z" fill="#EC145A"/>
</svg>
