<svg width="16" height="12" viewBox="0 0 16 12" fill="none" xmlns="http://www.w3.org/2000/svg">
<path d="M13.6777 0.322266C14.4414 0.322266 15.0723 0.986328 15.0723 1.75V10.25C15.0723 11.0137 14.4414 11.6777 13.6777 11.6777H2.32227C1.55859 11.6777 0.927734 11.0137 0.927734 10.25V1.75C0.927734 0.986328 1.55859 0.322266 2.32227 0.322266H13.6777ZM13.3789 3.34375C13.5449 3.24414 13.6777 3.04492 13.6777 2.8457C13.6777 2.34766 13.1465 2.08203 12.748 2.31445L8 5.30273L3.25195 2.31445C2.85352 2.08203 2.32227 2.34766 2.32227 2.8457C2.32227 3.04492 2.45508 3.24414 2.62109 3.34375L7.63477 6.46484C7.86719 6.63086 8.13281 6.63086 8.36523 6.46484L13.3789 3.34375Z" fill="white"/>
</svg>
