<svg width="17" height="17" viewBox="0 0 17 17" fill="none" xmlns="http://www.w3.org/2000/svg">
<g id="custom_icons">
<path id="Vector" d="M15.2863 7.42125L15.2156 7.12156H8.70187V9.87844H12.5938C12.1897 11.7972 10.3147 12.8072 8.78312 12.8072C7.66875 12.8072 6.49406 12.3384 5.71656 11.585C5.30635 11.1811 4.97983 10.7003 4.75568 10.1701C4.53154 9.63987 4.41418 9.07064 4.41031 8.495C4.41031 7.33375 4.93219 6.17219 5.69156 5.40812C6.45094 4.64406 7.59781 4.21656 8.73812 4.21656C10.0441 4.21656 10.98 4.91 11.33 5.22625L13.2891 3.2775C12.7144 2.7725 11.1356 1.5 8.675 1.5C6.77656 1.5 4.95625 2.22719 3.62562 3.55344C2.3125 4.85938 1.63281 6.74781 1.63281 8.5C1.63281 10.2522 2.27594 12.0463 3.54844 13.3625C4.90812 14.7663 6.83375 15.5 8.81656 15.5C10.6206 15.5 12.3306 14.7931 13.5494 13.5106C14.7475 12.2481 15.3672 10.5013 15.3672 8.67C15.3672 7.89906 15.2897 7.44125 15.2863 7.42125Z" fill="white"/>
</g>
</svg>
