<svg width="7" height="30" viewBox="0 0 7 30" fill="none" xmlns="http://www.w3.org/2000/svg">
<path id="Vector" d="M0.00657358 3.68087C-0.000634159 3.22727 0.017256 2.77361 0.060157 2.32211C0.125761 1.95892 0.249095 1.60937 0.425194 1.28752C0.790232 0.566758 1.78153 0.197754 3.41247 0.197754C5.19859 0.197754 6.25686 0.684008 6.58729 1.65652C6.73957 2.32866 6.80377 3.01877 6.77818 3.70845V25.6107C6.78451 26.0711 6.76662 26.5316 6.7246 26.9901C6.65799 27.354 6.53232 27.7038 6.35286 28.0247C5.99787 28.7305 5.00435 29.0846 3.37228 29.0869C1.58617 29.0869 0.540175 28.588 0.234303 27.5902C0.0528076 26.9395 -0.0241179 26.2627 0.00657358 25.5865V3.68087Z" fill="#EC145A"/>
</svg>
