<svg width="23" height="31" viewBox="0 0 23 31" fill="none" xmlns="http://www.w3.org/2000/svg">
<path id="Vector" d="M12.5292 15.5959C16.4296 19.4584 19.1959 22.361 20.828 24.3037C21.6719 25.2762 22.0872 26.097 22.0872 26.766C22.0872 27.435 21.5781 28.2248 20.5634 29.1283C19.5486 30.0318 18.7014 30.4905 18.0517 30.4905C17.402 30.4905 16.615 29.9387 15.7074 28.8352L7.28473 18.9411V26.6246C7.29384 27.0852 7.27483 27.5459 7.22781 28.0041C7.16404 28.3678 7.04059 28.7176 6.86276 29.0386C6.50777 29.7284 5.52318 30.1008 3.87884 30.1008C2.09049 30.1008 1.04896 29.6008 0.734157 28.6041C0.55973 27.9486 0.484061 27.2693 0.509782 26.5901V4.68101C0.500607 4.22722 0.520743 3.77329 0.570061 3.32225C0.628335 2.95806 0.749714 2.60763 0.928402 2.28766C1.28786 1.56115 2.28249 1.1979 3.91232 1.1979C5.69844 1.1979 6.75783 1.68415 7.0905 2.65666C7.2411 3.32908 7.30527 4.01896 7.28138 4.70859V12.2335C10.7509 8.2216 13.5573 4.92931 15.7007 2.35663C16.5882 1.28066 17.3752 0.742676 18.0282 0.742676C18.6813 0.742676 19.5319 1.19445 20.56 2.09799C21.5882 3.00153 22.0838 3.79471 22.0838 4.46375C22.0838 5.13278 21.702 5.92941 20.9385 6.85019C19.4582 8.60899 17.1631 11.023 14.053 14.0923L12.5292 15.5959Z" fill="#203E7C"/>
</svg>
