<svg width="17" height="25" viewBox="0 0 17 25" fill="none" xmlns="http://www.w3.org/2000/svg">
<path d="M8.5 13.6973C9.26367 13.6973 9.92773 14.3613 9.92773 15.125C9.92773 15.8887 9.26367 16.5527 8.5 16.5527C7.73633 16.5527 7.07227 15.8887 7.07227 15.125C7.07227 14.3613 7.73633 13.6973 8.5 13.6973ZM12.75 10.1777C13.5137 10.1777 14.1777 10.8086 14.1777 11.5723V18.6777C14.1777 19.4414 13.5137 20.0723 12.75 20.0723H4.25C3.48633 20.0723 2.82227 19.4414 2.82227 18.6777V11.5723C2.82227 10.8086 3.48633 10.1777 4.25 10.1777H10.625V8.75C10.625 7.58789 9.66211 6.625 8.5 6.625C7.53711 6.625 6.67383 7.28906 6.44141 8.21875C6.3418 8.61719 5.94336 8.81641 5.57812 8.7168C5.21289 8.61719 4.98047 8.25195 5.08008 7.85352C5.47852 6.29297 6.87305 5.19727 8.5 5.19727C10.459 5.19727 12.0527 6.79102 12.0527 8.75V10.1777H12.75ZM12.75 17.9473V12.3027C12.75 11.9043 12.418 11.5723 12.0527 11.5723H4.94727C4.58203 11.5723 4.25 11.9043 4.25 12.3027V17.9473C4.25 18.3457 4.58203 18.6777 4.94727 18.6777H12.0527C12.418 18.6777 12.75 18.3457 12.75 17.9473Z" fill="white"/>
</svg>
