<svg width="23" height="30" viewBox="0 0 23 30" fill="none" xmlns="http://www.w3.org/2000/svg">
<path id="Vector" d="M22.4199 24.2098C22.7229 24.8538 22.9156 25.5468 22.9893 26.2583C22.9893 27.2584 22.2 28.0987 20.6215 28.7793C20.004 29.0935 19.3328 29.281 18.6457 29.331C18.2068 29.3499 17.7743 29.2176 17.4166 28.9551C17.1409 28.746 16.9048 28.4865 16.72 28.1895C16.461 27.6883 15.4664 25.3111 13.7361 21.0578L12.5505 21.1371H7.72468V25.5858C7.73329 26.0464 7.71428 26.5071 7.66775 26.9653C7.60632 27.3291 7.48393 27.6792 7.30606 27.9999C6.94772 28.6896 5.94973 29.0655 4.32548 29.0655C2.53378 29.0655 1.48556 28.5758 1.17745 27.6067C1.00064 26.9387 0.923847 26.2467 0.949719 25.5548V3.68016C0.941286 3.22628 0.962545 2.77234 1.01335 2.3214C1.06858 1.95641 1.19015 1.60542 1.37169 1.28682C1.72891 0.576398 2.72467 0.221191 4.35897 0.221191H12.6209C14.8714 0.221191 17.0527 1.06265 19.1647 2.74558C20.2441 3.63369 21.1095 4.76675 21.6932 6.05626C22.371 7.50559 22.7148 9.09646 22.6979 10.705C22.6979 13.6754 21.7401 16.1182 19.8245 18.0333C20.3804 19.4197 21.2456 21.4785 22.4199 24.2098ZM7.72468 14.1605H12.6209C13.4346 14.133 14.2166 13.8286 14.8446 13.2949C15.5814 12.7156 15.9564 11.85 15.9564 10.6947C15.9564 9.53937 15.5814 8.66342 14.8446 8.07371C14.1997 7.51884 13.3907 7.2063 12.5505 7.18741H7.72468V14.1605Z" fill="#203E7C"/>
</svg>
