<svg width="12" height="12" viewBox="0 0 12 12" fill="none" xmlns="http://www.w3.org/2000/svg">
<path d="M6 0.175781C9.22656 0.175781 11.8242 2.77344 11.8242 6C11.8242 9.22656 9.22656 11.8242 6 11.8242C2.77344 11.8242 0.175781 9.22656 0.175781 6C0.175781 2.77344 2.77344 0.175781 6 0.175781ZM6 10.6758C8.57031 10.6758 10.6758 8.57031 10.6758 6C10.6758 3.42969 8.57031 1.32422 6 1.32422C3.42969 1.32422 1.32422 3.42969 1.32422 6C1.32422 8.57031 3.42969 10.6758 6 10.6758ZM8.26953 3.83984C8.48828 3.62109 8.87109 3.62109 9.08984 3.83984C9.30859 4.05859 9.30859 4.44141 9.08984 4.66016L5.23438 8.51562C5.01562 8.73438 4.66016 8.73438 4.41406 8.51562L2.91016 6.98438C2.69141 6.76562 2.69141 6.41016 2.91016 6.16406C3.12891 5.94531 3.51172 5.94531 3.73047 6.16406L4.82422 7.25781L8.26953 3.83984Z" fill="#34C759"/>
</svg>
